<svg width="30" height="30" viewBox="0 0 30 30" fill="none" xmlns="http://www.w3.org/2000/svg">
<path fill-rule="evenodd" clip-rule="evenodd" d="M2.5 15C2.5 8.09625 8.09626 2.5 15 2.5C21.9038 2.5 27.5 8.09625 27.5 15C27.5 21.9038 21.9038 27.5 15 27.5C8.09625 27.5 2.5 21.9037 2.5 15ZM15 10C15 9.66848 14.8683 9.35054 14.6339 9.11612C14.3995 8.8817 14.0815 8.75 13.75 8.75C13.4185 8.75 13.1005 8.8817 12.8661 9.11612C12.6317 9.35054 12.5 9.66848 12.5 10L12.5 16.25C12.5 16.5815 12.6317 16.8995 12.8661 17.1339C13.1005 17.3683 13.4185 17.5 13.75 17.5L20 17.5C20.3315 17.5 20.6495 17.3683 20.8839 17.1339C21.1183 16.8995 21.25 16.5815 21.25 16.25C21.25 15.9185 21.1183 15.6005 20.8839 15.3661C20.6495 15.1317 20.3315 15 20 15L15 15L15 10Z" fill="#415696"/>
</svg>
