<svg width="20" height="20" viewBox="0 0 20 20" fill="none" xmlns="http://www.w3.org/2000/svg">
<path fill-rule="evenodd" clip-rule="evenodd" d="M13.7945 18.4442C12.5945 18.4001 9.19364 17.9301 5.63197 14.3692C2.07114 10.8076 1.60197 7.40756 1.55697 6.20672C1.49031 4.37672 2.89197 2.59922 4.51114 1.90506C4.70612 1.82086 4.91964 1.78881 5.13075 1.81204C5.34186 1.83527 5.5433 1.91298 5.71531 2.03756C7.04864 3.00922 7.96864 4.47922 8.75864 5.63506C8.93246 5.889 9.00678 6.19801 8.96744 6.50322C8.92809 6.80843 8.77784 7.0885 8.54531 7.29006L6.91947 8.49756C6.84092 8.55428 6.78563 8.63758 6.76387 8.73199C6.74211 8.8264 6.75535 8.92551 6.80114 9.01089C7.16947 9.68006 7.82447 10.6767 8.57447 11.4267C9.32447 12.1767 10.3686 12.8751 11.0845 13.2851C11.1742 13.3354 11.2799 13.3495 11.3797 13.3244C11.4795 13.2993 11.5659 13.2369 11.6211 13.1501L12.6795 11.5392C12.874 11.2808 13.1611 11.1076 13.4805 11.056C13.7998 11.0045 14.1268 11.0785 14.3928 11.2626C15.5653 12.0742 16.9336 12.9784 17.9353 14.2609C18.07 14.4341 18.1557 14.6404 18.1834 14.8581C18.2111 15.0758 18.1798 15.2969 18.0928 15.4984C17.3953 17.1259 15.6303 18.5117 13.7945 18.4442Z" fill="#FFE041"/>
</svg>
