<svg width="91" height="63" viewBox="0 0 91 63" fill="none" xmlns="http://www.w3.org/2000/svg">
<g opacity="0.38">
<path d="M11.9174 38.6765C8.41228 37.5009 5.60818 35.5024 3.50511 32.681C1.40205 29.6245 0.233674 26.3329 0 22.8062C0 19.2795 0.934697 15.8703 2.80409 12.5787C4.90716 9.05194 8.06176 6.113 12.2679 3.76185C19.0445 0 25.0032 -0.940462 30.144 0.940462C35.2848 2.82138 38.9068 5.64277 41.0098 9.40462C42.1782 11.2855 42.9961 13.8718 43.4634 17.1634C44.1644 20.455 44.3981 23.9818 44.1644 27.7436C44.1644 31.2703 43.8139 34.7971 43.1129 38.3238C42.4119 41.8505 41.3604 44.7895 39.9583 47.1406C38.7899 48.7864 37.3879 50.5498 35.7522 52.4307C34.3501 54.0765 32.5976 55.7223 30.4945 57.3682C28.6251 59.2491 26.4052 60.7773 23.8348 61.9529L11.5669 60.8949C13.2026 59.014 14.6046 57.3682 15.773 55.9575C17.1751 54.5468 18.3434 53.2536 19.2781 52.0781C20.2128 50.9025 21.1475 49.8445 22.0822 48.904C23.4843 47.2582 24.6526 45.6124 25.5873 43.9666C26.522 42.5559 27.3399 41.0276 28.0409 39.3818C28.7419 37.736 28.8588 36.0902 28.3914 34.4444C26.7557 36.3253 25.0032 37.6185 23.1338 38.3238C21.2644 39.0292 19.5118 39.3818 17.8761 39.3818C15.773 39.3818 13.7868 39.1467 11.9174 38.6765Z" fill="#8D8D8D"/>
<path d="M59.5886 39.434C56.1836 38.2825 53.4597 36.3248 51.4167 33.561C49.3737 30.5668 48.2387 27.3424 48.0117 23.8876C48.0117 20.4329 48.9197 17.0933 50.7357 13.8688C52.7787 10.4141 55.8431 7.53512 59.9291 5.23195C66.5121 1.54688 72.3005 0.625607 77.2945 2.46814C82.2884 4.31068 85.8069 7.07449 87.8499 10.7596C88.9848 12.6021 89.7793 15.1356 90.2333 18.36C90.9143 21.5845 91.1413 25.0392 90.9143 28.7243C90.9143 32.1791 90.5738 35.6338 89.8928 39.0886C89.2118 42.5433 88.1904 45.4223 86.8284 47.7255C85.6934 49.3377 84.3314 51.0651 82.7424 52.9076C81.3804 54.5198 79.6779 56.132 77.6349 57.7443C75.819 59.5868 73.6625 61.0839 71.1655 62.2354L59.2481 61.199C60.8371 59.3565 62.1991 57.7443 63.3341 56.3624C64.6961 54.9804 65.8311 53.7137 66.739 52.5621C67.647 51.4105 68.555 50.3741 69.463 49.4528C70.825 47.8406 71.96 46.2284 72.868 44.6162C73.776 43.2343 74.5705 41.7372 75.2515 40.125C75.9325 38.5128 76.046 36.9006 75.592 35.2883C74.003 37.1309 72.3005 38.3976 70.4845 39.0886C68.6685 39.7795 66.966 40.125 65.3771 40.125C63.3341 40.125 61.4046 39.8947 59.5886 39.434Z" fill="#8D8D8D"/>
</g>
</svg>
