<svg width="47" height="47" viewBox="0 0 47 47" fill="none" xmlns="http://www.w3.org/2000/svg">
<rect width="47" height="47" rx="23.5" fill="#FFE041"/>
<path d="M35.3235 22.7215L25.0423 12.4403C24.7589 12.1648 24.3501 12.0614 23.9699 12.1691C23.5896 12.2767 23.2957 12.579 23.1988 12.9622C23.1019 13.3453 23.2167 13.751 23.5001 14.0265L31.8866 22.3984H12.4551C11.8467 22.3984 11.3535 22.8916 11.3535 23.5C11.3535 24.1083 11.8467 24.6015 12.4551 24.6015H31.872L23.5001 32.9734C23.2901 33.178 23.1717 33.4587 23.1717 33.7518C23.1717 34.045 23.2901 34.3257 23.5001 34.5303C23.7025 34.7427 23.9851 34.86 24.2785 34.8534C24.5709 34.8548 24.8515 34.7383 25.057 34.5303L35.3382 24.249C35.7677 23.8189 35.7677 23.1222 35.3382 22.6922L35.3235 22.7215Z" fill="#25282E"/>
</svg>
